# xmcd
#
# Track frame offsets: 
#        150
#        17645
#        34815
#        53427
#        69727
#        89382
#        110362
#        124857
#        145720
#        163970
#        177682
#
# Disc length: 2659 seconds
#
# Revision: 15
# Processed by: cddbd v1.5.2PL0 Copyright (c) Steve Scherf et al.
# Submitted via: ExactAudioCopy v0.99pb5
#
DISCID=970a610b
DTITLE=ארקדי דוכין - להרגיש
DYEAR=2001
DGENRE=Hebrew
TTITLE0=אוהבת לא אוהבת
TTITLE1=היא לא דומה
TTITLE2=זוזי
TTITLE3=דגים
TTITLE4=הרי את מותרת לכל אדם
TTITLE5=שניות של אהבה
TTITLE6=אל תעזבי
TTITLE7=בואי אלי
TTITLE8=שאלתי היום את הרוכל
TTITLE9=להרגיש
TTITLE10=בודד בודד
EXTD=YEAR: 2001
EXTT0=
EXTT1=
EXTT2=
EXTT3=
EXTT4=
EXTT5=
EXTT6=
EXTT7=
EXTT8=
EXTT9=
EXTT10=
PLAYORDER=
